<?xml version="1.0" encoding="UTF-8" standalone="no"?> <!-- Created with Vectornator for iOS (http://vectornator.io/) --><!DOCTYPE svg PUBLIC "-//W3C//DTD SVG 1.1//EN" "http://www.w3.org/Graphics/SVG/1.1/DTD/svg11.dtd">
<svg height="100%" style="fill-rule:evenodd;clip-rule:evenodd;stroke-linecap:round;stroke-linejoin:round;" xmlns:xlink="http://www.w3.org/1999/xlink" xmlns="http://www.w3.org/2000/svg" xml:space="preserve" width="100%" xmlns:vectornator="http://vectornator.io" version="1.1" viewBox="0 0 1920 1080">
<metadata>
<vectornator:setting key="DisplayWhiteBackground" value="0"/>
<vectornator:setting key="RulersVisible" value="0"/>
<vectornator:setting key="SnapToEdges" value="1"/>
<vectornator:setting key="Units" value="Pixels"/>
<vectornator:setting key="DynamicGuides" value="1"/>
<vectornator:setting key="SnapToPoints" value="1"/>
<vectornator:setting key="SnapToGrid" value="1"/>
<vectornator:setting key="SnapToGuides" value="1"/>
<vectornator:setting key="GridSpacing" value="36"/>
</metadata>
<defs/>
<g id="Layer 1" vectornator:layerName="Layer 1">
<path d="M-8.07191e-06+0L144.81+0L144.81+1080L-8.07191e-06+1080L-8.07191e-06+0Z" opacity="1" fill="#000000"/>
<path d="M417.49-158.527L427.1-158.527L427.1-135.704L417.49-135.704L417.49-158.527Z" opacity="1" fill="#000000"/>
<path d="M144.81-1.75477e-06L284.153-1.75477e-06L284.153+1080L144.81+1080L144.81-1.75477e-06Z" opacity="1" fill="#484848"/>
<path d="M284.153-1.75477e-06L427.1-1.75477e-06L427.1+1080L284.153+1080L284.153-1.75477e-06Z" opacity="1" fill="#afafaf"/>
<path d="M427.1+0L1920+0L1920+1080L427.1+1080L427.1+0Z" opacity="1" fill="#ffffff"/>
</g>
</svg>
