<?xml version="1.0" encoding="UTF-8" standalone="no"?> <!-- Created with Vectornator for iOS (http://vectornator.io/) --><!DOCTYPE svg PUBLIC "-//W3C//DTD SVG 1.1//EN" "http://www.w3.org/Graphics/SVG/1.1/DTD/svg11.dtd">
<svg height="100%" style="fill-rule:evenodd;clip-rule:evenodd;stroke-linecap:round;stroke-linejoin:round;" xmlns:xlink="http://www.w3.org/1999/xlink" xmlns="http://www.w3.org/2000/svg" xml:space="preserve" width="100%" xmlns:vectornator="http://vectornator.io" version="1.1" viewBox="0 0 250 250">
<metadata>
<vectornator:setting key="DisplayWhiteBackground" value="0"/>
<vectornator:setting key="RulersVisible" value="1"/>
<vectornator:setting key="GridSpacing" value="36"/>
<vectornator:setting key="Units" value="Pixels"/>
<vectornator:setting key="DynamicGuides" value="1"/>
<vectornator:setting key="SnapToPoints" value="1"/>
<vectornator:setting key="CMYKEnabledKey" value="0"/>
<vectornator:setting key="SnapToGrid" value="1"/>
<vectornator:setting key="SnapToGuides" value="1"/>
<vectornator:setting key="SnapToEdges" value="1"/>
</metadata>
<defs/>
<g id="Layer 1" vectornator:layerName="Layer 1">
<path d="M0+0L250+0L250+250L0+250L0+0Z" opacity="1" fill="#000000"/>
<path stroke="#ffffff" stroke-width="5" d="M37.4384+43.4247C70.785+63.5137+109.635+76.0041+148.877+70.6962C163.513+68.7165+178.551+62.3085+190.753+54.1116C193.884+52.0082+201.603+45.348+204.539+41.9998C205.024+41.4462+205.845+40.6509+205.49+40.0059C205.19+39.4627+203.317+39.9393+203.681+40.4418C206.131+43.829+210.621+45.6952+212.356+49.4988C212.686+50.221+203.587+61.9971+201.858+64.2276C198.262+68.8678+194.429+73.3241+190.918+78.029C173.648+101.171+159.541+126.439+144.013+150.75C138.857+158.823+133.76+166.935+128.418+174.886C124.361+180.925+120.053+186.791+115.824+192.71C113.019+196.635+110.254+200.591+107.316+204.417C105.641+206.599+101.689+212.738+98.2271+209.55L94.221+209.55C84.1872+201.979+92.8668+189.319+97.55+180.868C101.103+174.455+104.932+168.197+108.818+161.981C119.992+144.109+131.308+126.24+144.303+109.645C155.345+95.5449+168.302+83.0558+180.315+69.7737C187.072+62.3036+193.09+54.1778+198.934+45.9749C200.475+43.8124+201.015+39.7315+203.665+39.5655C207.923+39.2988+211.792+42.4901+215.277+44.9514C215.923+45.4078+213.913+45.8339+213.468+46.4886C212.744+47.5554+212.634+48.9782+211.849+50.0015C209.976+52.4448+207.817+54.6685+205.578+56.7816C193.358+68.3153+179.416+75.3442+163.406+80.5118C119.808+94.5847+66.5214+82.6804+34.596+49.6779" fill="#ffffff" stroke-linecap="butt" opacity="1" stroke-linejoin="round"/>
</g>
</svg>
